<svg width="72" height="72" xmlns="http://www.w3.org/2000/svg" xml:space="preserve" fill-rule="evenodd"
    clip-rule="evenodd" stroke-linejoin="round" stroke-miterlimit="2">
    <path
        d="m44 0-8 16.056L26 6.02v14.048L6 16.056l16 16.056-22 12.04h24L12 68.236 36 52.18l22 20.07-6-28.098h20L56 32.11l16-18.062-24 6.02L44 0Z"
        fill="#bb1a34" fill-rule="nonzero" />
    <path
        d="m45.828 25.848 3.72-.934L60 22.292l-6.762 7.632-2.638 2.98 3.18 2.39 5.85 4.404H47.794l.946 4.436 3.102 14.52-11.69-10.664-2.112-1.928-2.376 1.59-10.48 7.012 4.812-9.656 2.644-5.31H19.128l7.518-4.118 4.29-2.344-3.454-3.47-6.088-6.106 6.442 1.292 4.372.878v-8.458l2.9 2.91 3.588 3.598 2.266-4.552 2.546-5.112"
        fill="#fcab40" fill-rule="nonzero" />
    <path
        d="m43.024 28.602 1.534-.386 4.316-1.082-2.792 3.152-1.09 1.23 1.312.986 2.416 1.818h-4.886l.39 1.832 1.282 5.994-4.826-4.402-.874-.796-.98.656L34.5 40.5l1.986-3.988 1.092-2.192H32l3.106-1.7 1.77-.968-1.426-1.432-2.514-2.522 2.658.534 1.806.362v-3.49l1.198 1.2 1.48 1.486.936-1.878 1.05-2.112"
        fill="#f5f8fa" fill-rule="nonzero" />
</svg>