<?xml version="1.0" encoding="UTF-8" standalone="no"?>
<!DOCTYPE svg PUBLIC "-//W3C//DTD SVG 1.1//EN" "http://www.w3.org/Graphics/SVG/1.1/DTD/svg11.dtd">
<svg width="72" height="72" viewBox="0 0 72 72" version="1.1" xmlns="http://www.w3.org/2000/svg"
    xmlns:xlink="http://www.w3.org/1999/xlink" xml:space="preserve" xmlns:serif="http://www.serif.com/"
    style="fill-rule:evenodd;clip-rule:evenodd;stroke-linejoin:round;stroke-miterlimit:2;">
    <g transform="matrix(2,0,0,2,0,0)">
        <path
            d="M29,11.06C29,17.499 24,18.499 24,24.5C24,27.598 20.877,27.859 18.5,27.859C16.447,27.859 11.914,27.08 11.914,24.498C11.914,18.5 7,17.5 7,11.06C7,5.029 12.285,0.14 18.083,0.14C23.883,0.14 29,5.029 29,11.06Z"
            style="fill:rgb(255,217,131);fill-rule:nonzero;" />
    </g>
    <g transform="matrix(2,0,0,2,0,0)">
        <path
            d="M22.167,32.5C22.167,33.328 19.933,35 18,35C16.067,35 13.833,33.328 13.833,32.5C13.833,31.672 16.066,32 18,32C19.933,32 22.167,31.672 22.167,32.5Z"
            style="fill:rgb(204,214,221);fill-rule:nonzero;" />
    </g>
    <g transform="matrix(2,0,0,2,0,0)">
        <path
            d="M22.707,10.293C22.316,9.902 21.684,9.902 21.293,10.293L18,13.586L14.707,10.293C14.316,9.902 13.684,9.902 13.293,10.293C12.902,10.684 12.902,11.316 13.293,11.707L17,15.414L17,26C17,26.553 17.448,27 18,27C18.552,27 19,26.553 19,26L19,15.414L22.707,11.707C23.098,11.316 23.098,10.684 22.707,10.293Z"
            style="fill:rgb(255,204,77);fill-rule:nonzero;" />
    </g>
    <g transform="matrix(2,0,0,2,0,0)">
        <path d="M24,31C24,32.104 23.104,33 22,33L14,33C12.896,33 12,32.104 12,31L12,25L24,25L24,31Z"
            style="fill:rgb(153,170,181);fill-rule:nonzero;" />
    </g>
    <g transform="matrix(2,0,0,2,0,0)">
        <path
            d="M11.999,32C11.519,32 11.095,31.653 11.014,31.164C10.923,30.62 11.291,30.104 11.836,30.014L23.836,28.014C24.38,27.916 24.896,28.291 24.986,28.836C25.077,29.38 24.709,29.896 24.164,29.986L12.164,31.986C12.109,31.996 12.053,32 11.999,32ZM11.999,28C11.519,28 11.095,27.653 11.014,27.164C10.923,26.62 11.291,26.104 11.836,26.014L23.836,24.014C24.38,23.917 24.896,24.291 24.986,24.836C25.077,25.38 24.709,25.896 24.164,25.986L12.164,27.986C12.109,27.996 12.053,28 11.999,28Z"
            style="fill:rgb(204,214,221);fill-rule:nonzero;" />
    </g>
</svg>