<svg width="72" height="72" xmlns="http://www.w3.org/2000/svg" xml:space="preserve" fill-rule="evenodd"
    clip-rule="evenodd" stroke-linejoin="round" stroke-miterlimit="2">
    <path
        d="M58 22.12C58 34.998 48 36.998 48 49c0 6.196-6.246 6.718-11 6.718-4.106 0-13.172-1.558-13.172-6.722C23.828 37 14 35 14 22.12 14 10.058 24.57.28 36.166.28 47.766.28 58 10.058 58 22.12Z"
        fill="#ffd983" fill-rule="nonzero" />
    <path
        d="M44.334 65c0 1.656-4.468 5-8.334 5-3.866 0-8.334-3.344-8.334-5 0-1.656 4.466-1 8.334-1 3.866 0 8.334-.656 8.334 1Z"
        fill="#ccd6dd" fill-rule="nonzero" />
    <path
        d="M45.414 20.586a1.998 1.998 0 0 0-2.828 0L36 27.172l-6.586-6.586a1.998 1.998 0 0 0-2.828 0 1.998 1.998 0 0 0 0 2.828L34 30.828V52a2 2 0 1 0 4 0V30.828l7.414-7.414a1.998 1.998 0 0 0 0-2.828Z"
        fill="#ffcc4d" fill-rule="nonzero" />
    <path d="M48 62c0 2.208-1.792 4-4 4H28c-2.208 0-4-1.792-4-4V50h24v12Z" fill="#99aab5" fill-rule="nonzero" />
    <path
        d="M23.998 64a2 2 0 0 1-.326-3.972l24-4c1.088-.196 2.12.554 2.3 1.644a1.998 1.998 0 0 1-1.644 2.3l-24 4c-.11.02-.222.028-.33.028Zm0-8a2 2 0 0 1-.326-3.972l24-4c1.088-.194 2.12.554 2.3 1.644a1.998 1.998 0 0 1-1.644 2.3l-24 4c-.11.02-.222.028-.33.028Z"
        fill="#ccd6dd" fill-rule="nonzero" />
</svg>