<svg width="72" height="72" xmlns="http://www.w3.org/2000/svg" xml:space="preserve" fill-rule="evenodd"
    clip-rule="evenodd" stroke-linejoin="round" stroke-miterlimit="2">
    <path
        d="M36 0C16.118 0 0 16.118 0 36s16.118 36 36 36 36-16.118 36-36S55.882 0 36 0Zm26 36c0 5.13-1.506 9.9-4.07 13.93L22.072 14.072A25.832 25.832 0 0 1 36 10c14.36 0 26 11.642 26 26Zm-52 0c0-5.13 1.506-9.9 4.072-13.928L49.93 57.93A25.86 25.86 0 0 1 36 62c-14.358 0-26-11.64-26-26Z"
        fill="#dd2e44" fill-rule="nonzero" />
</svg>