<?xml version="1.0" encoding="UTF-8" standalone="no"?>
<!DOCTYPE svg PUBLIC "-//W3C//DTD SVG 1.1//EN" "http://www.w3.org/Graphics/SVG/1.1/DTD/svg11.dtd">
<svg width="72" height="72" viewBox="0 0 72 72" version="1.1" xmlns="http://www.w3.org/2000/svg"
    xmlns:xlink="http://www.w3.org/1999/xlink" xml:space="preserve" xmlns:serif="http://www.serif.com/"
    style="fill-rule:evenodd;clip-rule:evenodd;stroke-linejoin:round;stroke-miterlimit:2;">
    <g transform="matrix(2,0,0,2,0,0)">
        <path
            d="M33.541,23.198C33.905,21.62 33.784,19.932 33.083,18.252C32.405,16.627 31.236,15.342 29.812,14.479C30.13,13.287 30.046,12.004 29.488,10.729C28.647,8.809 26.828,7.528 24.776,7.167C25.025,6.595 25.105,5.878 24.812,5C23.812,2 19.812,4 16.812,0.001C14.372,1.465 13.842,3.641 13.934,5.488C11.513,5.9 10.134,6.424 10.134,6.424L10.134,6.426C8.774,6.976 7.812,8.309 7.812,9.868C7.812,10.747 8.13,11.544 8.64,12.18L7.948,12.438L7.949,12.441C5.619,13.312 3.974,15.417 3.974,17.88C3.974,18.927 4.274,19.907 4.794,20.758C1.971,22.027 0,24.781 0,28C0,32.418 3.691,36 8.244,36C11.513,36 14.803,35.297 17.775,34.335C20.018,35.375 23.47,36 28.667,36C32.717,36 36,32.717 36,28.667C36,26.491 35.047,24.542 33.541,23.198Z"
            style="fill:rgb(191,105,82);fill-rule:nonzero;" />
    </g>
    <g transform="matrix(2,0,0,2,0,0)">
        <ellipse cx="13.5" cy="15.5" rx="3.5" ry="4.5" style="fill:rgb(245,248,250);" />
    </g>
    <g transform="matrix(2,0,0,2,0,0)">
        <ellipse cx="23.5" cy="15.5" rx="3.5" ry="4.5" style="fill:rgb(245,248,250);" />
    </g>
    <g transform="matrix(2,0,0,2,0,0)">
        <ellipse cx="14" cy="15.5" rx="2" ry="2.5" style="fill:rgb(41,47,51);" />
    </g>
    <g transform="matrix(2,0,0,2,0,0)">
        <ellipse cx="23" cy="15.5" rx="2" ry="2.5" style="fill:rgb(41,47,51);" />
    </g>
    <g transform="matrix(2,0,0,2,0,0)">
        <path
            d="M9.447,24.895C9.201,24.402 9.45,24 10,24L28,24C28.55,24 28.799,24.402 28.553,24.895C28.553,24.895 26,30 19,30C12,30 9.447,24.895 9.447,24.895Z"
            style="fill:rgb(41,47,51);fill-rule:nonzero;" />
    </g>
    <g transform="matrix(2,0,0,2,0,0)">
        <path
            d="M19,26C16.229,26 13.843,26.922 12.708,28.256C14.2,29.211 16.253,30 19,30C21.747,30 23.801,29.211 25.292,28.256C24.157,26.922 21.771,26 19,26Z"
            style="fill:rgb(242,171,186);fill-rule:nonzero;" />
    </g>
</svg>