<?xml version="1.0" encoding="UTF-8" standalone="no"?>
<!DOCTYPE svg PUBLIC "-//W3C//DTD SVG 1.1//EN" "http://www.w3.org/Graphics/SVG/1.1/DTD/svg11.dtd">
<svg width="72" height="72" viewBox="0 0 72 72" version="1.1" xmlns="http://www.w3.org/2000/svg"
    xmlns:xlink="http://www.w3.org/1999/xlink" xml:space="preserve" xmlns:serif="http://www.serif.com/"
    style="fill-rule:evenodd;clip-rule:evenodd;stroke-linejoin:round;stroke-miterlimit:2;">
    <g transform="matrix(2,0,0,2,0,0)">
        <path
            d="M2.638,23.821L1.013,20.721L2.563,19.909C4.956,18.654 7.545,17.131 7.976,14.927C8.311,13.213 7.365,11.024 5.164,8.421L4.034,7.085L6.706,4.825L7.836,6.161C10.797,9.663 11.967,12.75 11.41,15.598C10.622,19.635 6.435,21.829 4.187,23.008L2.638,23.821ZM20.93,34.947L20.118,33.397C18.863,31.003 17.34,28.415 15.136,27.984C13.423,27.648 11.233,28.595 8.63,30.796L7.294,31.926L5.034,29.254L6.37,28.124C9.871,25.162 12.955,23.99 15.807,24.55C19.844,25.338 22.038,29.524 23.217,31.773L24.029,33.323L20.93,34.947ZM29.461,30.925L28.331,29.589C25.369,26.087 24.2,23 24.757,20.151C25.545,16.115 29.731,13.921 31.98,12.742L33.53,11.93L35.155,15.03L33.605,15.842C31.211,17.097 28.623,18.62 28.192,20.823C27.857,22.538 28.803,24.726 31.003,27.329L32.133,28.665L29.461,30.925ZM21.753,11.337C21.282,11.337 20.819,11.292 20.361,11.203C16.324,10.415 14.13,6.228 12.951,3.98L12.139,2.43L15.239,0.805L16.052,2.355C17.307,4.748 18.83,7.337 21.033,7.768C22.744,8.102 24.935,7.158 27.539,4.956L28.875,3.826L31.135,6.498L29.799,7.628C26.858,10.114 24.211,11.337 21.753,11.337Z"
            style="fill:rgb(190,25,49);fill-rule:nonzero;" />
    </g>
</svg>