<svg width="72" height="72" xmlns="http://www.w3.org/2000/svg" fill-rule="evenodd" clip-rule="evenodd" stroke-linejoin="round" stroke-miterlimit="2"><path d="M66 38c2.374 0 4 1.572 4 4 0 2.146-1.966 4-4 4H44c-2.992 0-4-1.626-4-4 0-1.13 1.264-2.984 2-4l16-24H44c-2.256 0-4-1.686-4-4 0-2.146 1.858-4 4-4h22c3.278 0 4 2.024 4 4 0 1.242-1.27 3.038-2 4L52 38h14zM34 48c1.266 0 2 .706 2 2 0 1.146-.916 2-2 2H22c-1.596 0-2-.734-2-2 0-.602.674-1.458 1.066-2L30 36h-8c-1.204 0-2-.768-2-2 0-1.146.856-2 2-2h12c1.748 0 2 .946 2 2 0 .662-.676 1.754-1.066 2.266L26 48h8zM16 62c1.266 0 2 .706 2 2 0 1.146-.916 2-2 2H4c-1.596 0-2-.734-2-2 0-.602.674-1.458 1.066-2L12 50H4c-1.204 0-2-.768-2-2 0-1.144.856-2 2-2h12c1.748 0 2 .946 2 2 0 .662-.676 1.754-1.066 2.266L8 62h8z" fill="#4289c1" fill-rule="nonzero"/></svg>