<?xml version="1.0" encoding="UTF-8" standalone="no"?>
<!DOCTYPE svg PUBLIC "-//W3C//DTD SVG 1.1//EN" "http://www.w3.org/Graphics/SVG/1.1/DTD/svg11.dtd">
<svg width="72" height="72" viewBox="0 0 72 72" version="1.1" xmlns="http://www.w3.org/2000/svg"
    xmlns:xlink="http://www.w3.org/1999/xlink" xml:space="preserve" xmlns:serif="http://www.serif.com/"
    style="fill-rule:evenodd;clip-rule:evenodd;stroke-linejoin:round;stroke-miterlimit:2;">
    <g transform="matrix(2,0,0,2,0,0)">
        <path
            d="M33,19C34.187,19 35,19.786 35,21C35,22.073 34.017,23 33,23L22,23C20.504,23 20,22.187 20,21C20,20.435 20.632,19.508 21,19L29,7L22,7C20.872,7 20,6.157 20,5C20,3.927 20.929,3 22,3L33,3C34.639,3 35,4.012 35,5C35,5.621 34.365,6.519 34,7L26,19L33,19ZM17,24C17.633,24 18,24.353 18,25C18,25.573 17.542,26 17,26L11,26C10.202,26 10,25.633 10,25C10,24.699 10.337,24.271 10.533,24L15,18L11,18C10.398,18 10,17.616 10,17C10,16.427 10.428,16 11,16L17,16C17.874,16 18,16.473 18,17C18,17.331 17.662,17.877 17.467,18.133L13,24L17,24ZM8,31C8.633,31 9,31.353 9,32C9,32.573 8.542,33 8,33L2,33C1.202,33 1,32.633 1,32C1,31.699 1.337,31.271 1.533,31L6,25L2,25C1.398,25 1,24.616 1,24C1,23.428 1.428,23 2,23L8,23C8.874,23 9,23.473 9,24C9,24.331 8.662,24.877 8.467,25.133L4,31L8,31Z"
            style="fill:rgb(66,137,193);fill-rule:nonzero;" />
    </g>
</svg>