<?xml version="1.0" encoding="UTF-8" standalone="no"?>
<!DOCTYPE svg PUBLIC "-//W3C//DTD SVG 1.1//EN" "http://www.w3.org/Graphics/SVG/1.1/DTD/svg11.dtd">
<svg width="100%" height="100%" viewBox="0 0 20 20" version="1.1" xmlns="http://www.w3.org/2000/svg" xmlns:xlink="http://www.w3.org/1999/xlink" xml:space="preserve" xmlns:serif="http://www.serif.com/" style="fill-rule:evenodd;clip-rule:evenodd;stroke-linejoin:round;stroke-miterlimit:2;">
    <g transform="matrix(1,0,0,1,-7.03515,-16.3689)">
        <path d="M26.503,27.371C26.503,27.371 27.5,26.65 26.668,25.757C25.836,24.864 25.047,25.809 25.047,25.809L20.9,29.675C20.831,29.47 20.441,28.932 20.35,28.728L26.105,23.362C26.105,23.362 27.103,22.641 26.269,21.747C25.437,20.855 24.647,21.798 24.647,21.798L19.234,26.844C19.109,26.686 18.773,26.304 18.64,26.146L24.916,20.296C24.916,20.296 25.913,19.574 25.08,18.682C24.248,17.789 23.459,18.733 23.459,18.733L17.181,24.581C17.031,24.436 16.569,23.972 16.417,23.835L22.283,18.367C22.283,18.367 23.279,17.645 22.447,16.753C21.614,15.86 20.826,16.804 20.826,16.804L14.623,22.585L14.126,23.049L13.904,23.256C13.904,23.256 13.366,24 12.817,23.435L14.659,19.277C14.659,19.277 15.239,18.203 14.166,17.622C13.091,17.041 12.511,18.115 12.511,18.115L10.843,20.873C10.18,21.966 9.494,23.051 8.684,24.04C6.4,26.833 6.473,30.954 9.002,33.669C11.761,36.628 16.398,36.791 19.357,34.033L19.804,33.615L26.503,27.371Z" style="fill:rgb(236,176,139);fill-rule:nonzero;"/>
    </g>
</svg>
