<?xml version="1.0" encoding="UTF-8" standalone="no"?>
<!DOCTYPE svg PUBLIC "-//W3C//DTD SVG 1.1//EN" "http://www.w3.org/Graphics/SVG/1.1/DTD/svg11.dtd">
<svg width="100%" height="100%" viewBox="0 0 13 20" version="1.1" xmlns="http://www.w3.org/2000/svg" xmlns:xlink="http://www.w3.org/1999/xlink" xml:space="preserve" xmlns:serif="http://www.serif.com/" style="fill-rule:evenodd;clip-rule:evenodd;stroke-linejoin:round;stroke-miterlimit:2;">
    <g transform="matrix(1,0,0,1,-13.7844,-16.9878)">
        <path d="M25.35,25.981L25.317,25.961C24.478,25.446 23.37,25.711 22.855,26.55L22.704,26.795C22.162,26.233 21.454,25.821 20.636,25.654L19.237,25.368L20.509,19.144C20.706,18.179 20.078,17.229 19.114,17.032L19.076,17.024C18.111,16.827 17.161,17.455 16.964,18.419L15.291,26.602L15.276,26.676L14.963,28.207L14.962,28.217L13.834,33.75C13.614,34.828 14.104,36 15.729,36L19,36C21.804,36 22.635,34.99 23.198,32.907L25.939,28.444C26.453,27.605 26.189,26.497 25.35,25.981Z" style="fill:rgb(241,144,32);fill-rule:nonzero;"/>
    </g>
    <g transform="matrix(1,0,0,1,-13.7844,-16.9878)">
        <path d="M22.409,30.743C22.389,30.743 22.367,30.741 22.345,30.737C22.161,30.703 22.04,30.525 22.076,30.34C22.135,30.028 22.074,29.753 21.889,29.501C21.299,28.693 19.6,28.326 18.995,28.253C18.809,28.231 18.676,28.061 18.699,27.876C18.721,27.69 18.883,27.555 19.076,27.58C19.177,27.591 21.55,27.89 22.436,29.101C22.734,29.508 22.837,29.969 22.742,30.469C22.711,30.63 22.569,30.743 22.409,30.743ZM19.15,35.473C18.897,35.473 18.62,35.442 18.317,35.371C17.707,35.227 17.277,34.872 17.137,34.396C17.019,33.995 17.127,33.571 17.426,33.261C17.814,32.859 18.429,32.727 19.121,32.903C19.302,32.949 19.412,33.134 19.366,33.316C19.32,33.496 19.137,33.607 18.953,33.561C18.508,33.447 18.128,33.511 17.915,33.732C17.787,33.864 17.74,34.041 17.788,34.205C17.857,34.441 18.107,34.626 18.473,34.711C19.653,34.988 20.306,34.525 20.647,34.086C21.155,33.433 21.215,32.548 21.034,32.201C20.612,31.389 18.985,31.209 18.394,31.208C18.207,31.208 18.055,31.056 18.055,30.869C18.055,30.682 18.207,30.53 18.394,30.53C18.497,30.53 20.936,30.545 21.636,31.889C21.941,32.474 21.854,33.64 21.182,34.503C20.874,34.897 20.239,35.473 19.15,35.473Z" style="fill:rgb(101,71,27);fill-rule:nonzero;"/>
    </g>
</svg>
