<?xml version="1.0" encoding="UTF-8" standalone="no"?>
<!DOCTYPE svg PUBLIC "-//W3C//DTD SVG 1.1//EN" "http://www.w3.org/Graphics/SVG/1.1/DTD/svg11.dtd">
<svg width="72" height="30" viewBox="0 0 72 30" version="1.1" xmlns="http://www.w3.org/2000/svg"
    xmlns:xlink="http://www.w3.org/1999/xlink" xml:space="preserve" xmlns:serif="http://www.serif.com/"
    style="fill-rule:evenodd;clip-rule:evenodd;stroke-linejoin:round;stroke-miterlimit:2;">
    <g transform="matrix(3.18182,0,0,3.18182,-21.2727,-64.0455)">
        <path
            d="M25,21C27.209,21 29,22.791 29,25C29,27.209 27.209,29 25,29L11,29C8.791,29 7,27.209 7,25C7,22.791 8.791,21 11,21L25,21Z"
            style="fill:white;fill-rule:nonzero;" />
    </g>
    <g transform="matrix(3.18182,0,0,3.18182,-21.2727,-64.0455)">
        <path
            d="M25,21L11,21C9.605,21 8.755,21.5 8.1,22.171C7.461,22.827 7,23.638 7,25C7,26.116 7.204,26.562 7.629,27.2C8.254,28.138 9.359,29 11,29L25,29C26.288,29 27.088,28.556 27.743,27.986C28.49,27.335 29,26.469 29,25C29,23.855 28.663,23.285 28.214,22.643C27.583,21.739 26.612,21 25,21ZM25,22C26.483,22 27.71,23.084 27.949,24.5L24.5,24.5L24.5,22L25,22ZM23.5,22L23.5,24.5L20.5,24.5L20.5,22L23.5,22ZM19.5,22L19.5,24.5L16.5,24.5L16.5,22L19.5,22ZM15.5,22L15.5,24.5L12.5,24.5L12.5,22L15.5,22ZM11,22L11.5,22L11.5,24.5L8.051,24.5C8.29,23.084 9.517,22 11,22ZM11,28C9.517,28 8.29,26.916 8.051,25.5L11.5,25.5L11.5,28L11,28ZM12.5,28L12.5,25.5L15.5,25.5L15.5,28L12.5,28ZM16.5,28L16.5,25.5L19.5,25.5L19.5,28L16.5,28ZM20.5,28L20.5,25.5L23.5,25.5L23.5,28L20.5,28ZM25,28L24.5,28L24.5,25.5L27.949,25.5C27.71,26.916 26.483,28 25,28Z"
            style="fill:rgb(118,118,118);fill-rule:nonzero;" />
    </g>
</svg>