<svg viewBox="0 0 268 70" width="268" height="70" xmlns="http://www.w3.org/2000/svg" xml:space="preserve"
    fill-rule="evenodd" clip-rule="evenodd" stroke-linejoin="round" stroke-miterlimit="2">
    <path
        d="M116 332h32c2.828 0 3.653 6.854 7.698 14 3.296 5.824 8.302 13 10.302 15 1 1 24.488 2.209 24.5 1.5.987-1.285.589-6.75.5-11.5-.119-6.377-.461-12.502 0-13 1.364-.187 36 0 37 0 1.16-.034 2.568 7.404 4 14 1.501 6.912 2.109 11.393 4 13h28.5c2-3.35 4.65-27.277 6.5-27 2.117-.236 32 0 38.5 0 .84.119.13 4.953.174 9.5.064 6.825.097 14.753.097 14.753 3.82-.06 23.427-.506 23.729-1.253 2.798-3.717 8.257-11 10.054-15.291 1.677-4.003 5.592-13.49 6.446-13.709 1.021-.163 34-1 34-1-15.788 44.763-63.016 65.557-133 69-62.968 1.977-109.093-19.146-135-68Z"
        transform="translate(-116 -331)" id="Layer1" />
</svg>