<svg width="496" height="176" xmlns="http://www.w3.org/2000/svg" fill-rule="evenodd" clip-rule="evenodd" stroke-linejoin="round" stroke-miterlimit="2"><path d="M3.087.846c7.039-2.282 56.597 10.759 69.543 16.623 9.077 13.103 11.719 47.246 19.457 52.377 20.548-17.395 25.977-21.259 28.487-18.892 23.036 25 28.96 41.138 32.513 44.892 13.382-6.184 29.287-25.184 45-30 14.053 7.212 34.719 30.186 50.155 47.488 11.914-11.902 36.063-39.336 49.845-47.488 30.656 18.269 35.692 25.173 46 30 7.613-6.117 13.226-22.572 30.938-43.44 16.926 6.503 16.404 12.23 29.74 16.193C412.565 63.054 420 29 423 20c14.894-11.596 67.68-23.828 72.017-18.683 4.632 9.81-49.996 120.248-60.555 126.937-1.462.926-20.883-19.211-21.103-19.295-10.36 11.041-35.272 36.887-35.272 36.887l-21.071-16.035S330 161 327.05 161.398c-3.491.471-13.22-7.647-34.964-21.552-20.444 20.083-38.087 34.33-44 36-4.087 1.154-31.731-27.75-44-36-12.448 6.755-25.032 17.07-36 21C158.305 155.542 141 134 138 133c-2.963-.988-16.91 12.42-19.913 12.846-1.087.154-24.828-34.026-33.995-37.36C75 115 64.934 125.324 63.087 125.846 59 127-13.511 6.227 3.087.846z"/></svg>