<svg width="72" height="27" xmlns="http://www.w3.org/2000/svg" xml:space="preserve" fill-rule="evenodd"
    clip-rule="evenodd" stroke-linejoin="round" stroke-miterlimit="2">
    <path
        d="M66.186 26.385H5.814C2.615 26.385 0 23.77 0 20.571V5.814C0 2.615 2.615 0 5.814 0h60.372C69.385 0 72 2.615 72 5.814v14.757c0 3.2-2.615 5.814-5.814 5.814Z"
        fill="#292f33" fill-rule="nonzero" />
    <path
        d="M9.877 11.546H7.773c-.807 0-1.175-.59-1.175-1.175 0-.587.368-1.173 1.175-1.173h2.443l.538-3.934c.12-.88.488-1.173 1.221-1.173.586 0 1.126.388 1.126.977 0 .368 0 .196-.048.59L12.564 9.2h2.348l.537-3.935c.121-.88.489-1.172 1.222-1.172.586 0 1.126.388 1.126.977 0 .368 0 .195-.049.589l-.491 3.543h2.103c.808 0 1.173.59 1.173 1.173 0 .586-.368 1.175-1.173 1.175h-2.445l-.391 2.785h2.103c.808 0 1.173.589 1.173 1.175 0 .586-.368 1.172-1.173 1.172h-2.445l-.537 3.935c-.124.882-.492 1.172-1.224 1.172-.587 0-1.127-.388-1.127-.977 0-.368 0-.195.05-.589l.49-3.543H11.49l-.537 3.934c-.124.882-.489 1.173-1.224 1.173-.587 0-1.127-.389-1.127-.977 0-.368 0-.196.05-.59l.488-3.543H7.04c-.805 0-1.173-.589-1.173-1.172 0-.59.368-1.175 1.173-1.175h2.445l.39-2.785Zm1.98 2.785h2.322l.39-2.785h-2.321l-.391 2.785Zm11.87-6.429c0-2.127 1.589-3.96 3.764-3.96 2.176 0 3.765 1.833 3.765 3.96s-1.59 3.937-3.765 3.937c-2.178.002-3.764-1.808-3.764-3.937Zm5.034 0c0-.782-.465-1.466-1.27-1.466-.807 0-1.273.687-1.273 1.466 0 .784.466 1.445 1.273 1.445.805 0 1.27-.66 1.27-1.445Zm5.94-3.322c.32-.61.564-.782 1.127-.782.758 0 1.442.61 1.442 1.368 0 .195 0 .368-.195.733l-8.213 15.374c-.368.512-.515.805-1.1.805-.636 0-1.395-.61-1.395-1.342 0-.368.147-.707.245-.905l8.09-15.251ZM32.331 18c0-2.127 1.589-3.96 3.764-3.96 2.176 0 3.765 1.833 3.765 3.96 0 2.124-1.59 3.934-3.765 3.934-2.178.003-3.764-1.81-3.764-3.934Zm5.034 0c0-.784-.465-1.466-1.272-1.466-.808 0-1.273.684-1.273 1.466 0 .782.465 1.443 1.273 1.443.807 0 1.272-.661 1.272-1.443Zm6.393 2.029a1.91 1.91 0 0 1 1.905-1.908 1.91 1.91 0 0 1 1.908 1.908 1.906 1.906 0 0 1-3.813 0Zm.147-14.423c0-1.026.756-1.661 1.758-1.661.98 0 1.762.66 1.762 1.66v9.412c0 1.003-.782 1.661-1.762 1.661-1.002 0-1.758-.635-1.758-1.66V5.605ZM64.677 22.08c-.481 0-.782-.136-1.109-.504l-1.861-2.032-.186.17c-1.805 1.659-3.363 2.363-5.204 2.363-2.852 0-5.732-1.625-5.732-5.256 0-2.846 2.23-4.549 3.56-5.31l.3-.172-.244-.252c-1.093-1.144-1.54-2.09-1.54-3.263 0-2.77 2.527-4.03 4.875-4.03 1.964 0 4.731 1.165 4.731 3.75 0 2.445-2.27 3.86-2.965 4.235l-.295.16 2.985 3.447 1.142-1.378c.635-.764 1.005-1.085 1.66-1.085.528 0 1.091.473 1.091 1.345 0 .653-.648 1.504-1.283 2.25l-.764.861 1.816 2.155c.337.401.475.615.475 1.1.003.76-.691 1.446-1.452 1.446Zm-8.864-8.933c-1.1.738-2.222 1.71-2.222 3.32 0 1.686 1.098 2.774 2.8 2.774 1.42 0 2.338-.622 3.28-1.558l.182-.178-3.858-4.482-.182.124Zm1.725-6.971c-.72 0-1.723.588-1.723 1.548 0 .894.44 1.44 1.374 2.388l.13.134.163-.085c1.278-.668 1.926-1.422 1.926-2.234.002-1.204-.967-1.751-1.87-1.751Z"
        fill="#fff" fill-rule="nonzero" />
</svg>