<?xml version="1.0" encoding="UTF-8" standalone="no"?>
<!DOCTYPE svg PUBLIC "-//W3C//DTD SVG 1.1//EN" "http://www.w3.org/Graphics/SVG/1.1/DTD/svg11.dtd">
<svg width="72" height="27" viewBox="0 0 72 27" version="1.1" xmlns="http://www.w3.org/2000/svg"
    xmlns:xlink="http://www.w3.org/1999/xlink" xml:space="preserve" xmlns:serif="http://www.serif.com/"
    style="fill-rule:evenodd;clip-rule:evenodd;stroke-linejoin:round;stroke-miterlimit:2;">
    <g transform="matrix(2.57143,0,0,2.57143,-10.2857,-58.4717)">
        <path
            d="M29.739,33L6.261,33C5.017,33 4,31.983 4,30.739L4,25C4,23.756 5.017,22.739 6.261,22.739L29.739,22.739C30.983,22.739 32,23.756 32,25L32,30.739C32,31.983 30.983,33 29.739,33Z"
            style="fill:rgb(41,47,51);fill-rule:nonzero;" />
    </g>
    <g transform="matrix(2.57143,0,0,2.57143,-10.2857,-58.4717)">
        <path
            d="M7.841,27.229L7.023,27.229C6.709,27.229 6.566,27 6.566,26.772C6.566,26.544 6.709,26.316 7.023,26.316L7.973,26.316L8.182,24.786C8.229,24.444 8.372,24.33 8.657,24.33C8.885,24.33 9.095,24.481 9.095,24.71C9.095,24.853 9.095,24.786 9.076,24.939L8.886,26.317L9.799,26.317L10.008,24.787C10.055,24.445 10.198,24.331 10.483,24.331C10.711,24.331 10.921,24.482 10.921,24.711C10.921,24.854 10.921,24.787 10.902,24.94L10.711,26.318L11.529,26.318C11.843,26.318 11.985,26.547 11.985,26.774C11.985,27.002 11.842,27.231 11.529,27.231L10.578,27.231L10.426,28.314L11.244,28.314C11.558,28.314 11.7,28.543 11.7,28.771C11.7,28.999 11.557,29.227 11.244,29.227L10.293,29.227L10.084,30.757C10.036,31.1 9.893,31.213 9.608,31.213C9.38,31.213 9.17,31.062 9.17,30.833C9.17,30.69 9.17,30.757 9.189,30.604L9.38,29.226L8.468,29.226L8.259,30.756C8.211,31.099 8.069,31.212 7.783,31.212C7.555,31.212 7.345,31.061 7.345,30.832C7.345,30.689 7.345,30.756 7.364,30.603L7.554,29.225L6.738,29.225C6.425,29.225 6.282,28.996 6.282,28.769C6.282,28.54 6.425,28.312 6.738,28.312L7.689,28.312L7.841,27.229ZM8.611,28.312L9.514,28.312L9.666,27.229L8.763,27.229L8.611,28.312ZM13.227,25.812C13.227,24.985 13.845,24.272 14.691,24.272C15.537,24.272 16.155,24.985 16.155,25.812C16.155,26.639 15.537,27.343 14.691,27.343C13.844,27.344 13.227,26.64 13.227,25.812ZM15.185,25.812C15.185,25.508 15.004,25.242 14.691,25.242C14.377,25.242 14.196,25.509 14.196,25.812C14.196,26.117 14.377,26.374 14.691,26.374C15.004,26.374 15.185,26.117 15.185,25.812ZM17.495,24.52C17.619,24.283 17.714,24.216 17.933,24.216C18.228,24.216 18.494,24.453 18.494,24.748C18.494,24.824 18.494,24.891 18.418,25.033L15.224,31.012C15.081,31.211 15.024,31.325 14.796,31.325C14.549,31.325 14.254,31.088 14.254,30.803C14.254,30.66 14.311,30.528 14.349,30.451L17.495,24.52ZM16.573,29.739C16.573,28.912 17.191,28.199 18.037,28.199C18.883,28.199 19.501,28.912 19.501,29.739C19.501,30.565 18.883,31.269 18.037,31.269C17.19,31.27 16.573,30.565 16.573,29.739ZM18.531,29.739C18.531,29.434 18.35,29.169 18.036,29.169C17.722,29.169 17.541,29.435 17.541,29.739C17.541,30.043 17.722,30.3 18.036,30.3C18.35,30.3 18.531,30.043 18.531,29.739ZM21.017,30.528C21.017,30.119 21.35,29.786 21.758,29.786C22.167,29.786 22.5,30.119 22.5,30.528C22.5,30.936 22.167,31.269 21.758,31.269C21.35,31.27 21.017,30.937 21.017,30.528ZM21.074,24.919C21.074,24.52 21.368,24.273 21.758,24.273C22.139,24.273 22.443,24.53 22.443,24.919L22.443,28.579C22.443,28.969 22.139,29.225 21.758,29.225C21.368,29.225 21.074,28.978 21.074,28.579L21.074,24.919ZM29.152,31.326C28.965,31.326 28.848,31.273 28.721,31.13L27.997,30.34L27.925,30.406C27.223,31.051 26.617,31.325 25.901,31.325C24.792,31.325 23.672,30.693 23.672,29.281C23.672,28.174 24.539,27.512 25.056,27.216L25.173,27.149L25.078,27.051C24.653,26.606 24.479,26.238 24.479,25.782C24.479,24.705 25.462,24.215 26.375,24.215C27.139,24.215 28.215,24.668 28.215,25.673C28.215,26.624 27.332,27.174 27.062,27.32L26.947,27.382L28.108,28.723L28.552,28.187C28.799,27.89 28.943,27.765 29.198,27.765C29.403,27.765 29.622,27.949 29.622,28.288C29.622,28.542 29.37,28.873 29.123,29.163L28.826,29.498L29.532,30.336C29.663,30.492 29.717,30.575 29.717,30.764C29.718,31.059 29.448,31.326 29.152,31.326ZM25.705,27.852C25.277,28.139 24.841,28.517 24.841,29.143C24.841,29.799 25.268,30.222 25.93,30.222C26.482,30.222 26.839,29.98 27.205,29.616L27.276,29.547L25.776,27.804L25.705,27.852ZM26.376,25.141C26.096,25.141 25.706,25.37 25.706,25.743C25.706,26.091 25.877,26.303 26.24,26.672L26.291,26.724L26.354,26.691C26.851,26.431 27.103,26.138 27.103,25.822C27.104,25.354 26.727,25.141 26.376,25.141Z"
            style="fill:white;fill-rule:nonzero;" />
    </g>
</svg>