<svg viewBox="0 0 22 19" width="110" height="95" xmlns="http://www.w3.org/2000/svg" fill-rule="evenodd"
  clip-rule="evenodd" stroke-linejoin="round" stroke-miterlimit="2">
  <path
    d="M10.63 3.021c-3.544.76-5.982.85-9.01.908-.692.015-1.956.42-1.537 2.375.838 3.911 6.38 7.837 12.642 6.495 6.262-1.342 9.708-7.194 8.87-11.105C21.176-.262 19.856-.114 19.22.158c-2.786 1.187-5.048 2.104-8.59 2.863z"
    fill="#2d2d2d" fill-rule="nonzero" />
  <path d="M3.004 6.088v6c0 3 2 6 6 6s6-3 6-6v-6h-12z" fill="#e8596e" fill-rule="nonzero" />
  <path d="M9.004 13.967a.545.545 0 00.545-.545V7.127H8.46v6.295a.546.546 0 00.545.545z" fill="#dd2f45"
    fill-rule="nonzero" />
  <path
    d="M2.038 5.885s3.143.35 9.01-.908c5.867-1.257 8.591-2.864 8.591-2.864s-1.117 4.33-7.962 5.797C4.832 9.377 2.038 5.885 2.038 5.885z"
    fill="#fff" fill-rule="nonzero" />
</svg>