<?xml version="1.0" encoding="UTF-8" standalone="no"?>
<!DOCTYPE svg PUBLIC "-//W3C//DTD SVG 1.1//EN" "http://www.w3.org/Graphics/SVG/1.1/DTD/svg11.dtd">
<svg width="100%" height="100%" viewBox="0 0 31 19" version="1.1" xmlns="http://www.w3.org/2000/svg" xmlns:xlink="http://www.w3.org/1999/xlink" xml:space="preserve" xmlns:serif="http://www.serif.com/" style="fill-rule:evenodd;clip-rule:evenodd;stroke-linejoin:round;stroke-miterlimit:2;">
    <g transform="matrix(1,0,0,1,-2.797,-17.931)">
        <path d="M18,27.136C21.335,27.136 23.547,27.524 26.284,28.056C26.909,28.176 28.125,28.056 28.125,26.215C28.125,22.533 23.895,17.931 18,17.931C12.105,17.931 7.875,22.533 7.875,26.215C7.875,28.056 9.091,28.177 9.716,28.056C12.452,27.524 14.665,27.136 18,27.136Z" style="fill:rgb(45,45,45);fill-rule:nonzero;"/>
    </g>
    <g transform="matrix(1,0,0,1,-2.797,-17.931)">
        <path d="M25.712,32.287L25.712,25.186C25.712,22.593 21.823,20.001 17.934,20.001C14.045,20.001 10.156,22.594 10.156,25.186L10.156,32.287C5.753,32.636 2.797,33.272 2.797,34C2.797,35.105 9.574,36 17.934,36C26.294,36 33.071,35.105 33.071,34C33.071,33.272 30.115,32.636 25.712,32.287Z" style="fill:rgb(119,175,87);fill-rule:nonzero;"/>
    </g>
    <g transform="matrix(1,0,0,1,-2.797,-17.931)">
        <circle cx="15.875" cy="23.228" r="1.235" style="fill:rgb(93,143,63);"/>
    </g>
    <g transform="matrix(1,0,0,1,-2.797,-17.931)">
        <circle cx="20.698" cy="25.64" r="1.235" style="fill:rgb(93,143,63);"/>
    </g>
    <g transform="matrix(0.160209,-0.987083,0.987083,0.160209,-15.0864,28.6521)">
        <circle cx="21.232" cy="30.515" r="1.235" style="fill:rgb(93,143,63);"/>
    </g>
    <g transform="matrix(0.160209,-0.987083,0.987083,0.160209,-22.2379,24.3144)">
        <circle cx="15.107" cy="32.548" r="1.765" style="fill:rgb(93,143,63);"/>
    </g>
</svg>
