<svg viewBox="0 0 31 19" width="124" height="76" xmlns="http://www.w3.org/2000/svg" fill-rule="evenodd"
  clip-rule="evenodd" stroke-linejoin="round" stroke-miterlimit="2">
  <path
    d="M15.203 9.205c3.335 0 5.547.388 8.284.92.625.12 1.841 0 1.841-1.841C25.328 4.602 21.098 0 15.203 0S5.078 4.602 5.078 8.284c0 1.841 1.216 1.962 1.841 1.841 2.736-.532 4.949-.92 8.284-.92z"
    fill="#2d2d2d" fill-rule="nonzero" />
  <path
    d="M22.915 14.356V7.255c0-2.593-3.889-5.185-7.778-5.185S7.359 4.663 7.359 7.255v7.101C2.956 14.705 0 15.341 0 16.069c0 1.105 6.777 2 15.137 2s15.137-.895 15.137-2c0-.728-2.956-1.364-7.359-1.713z"
    fill="#77af57" fill-rule="nonzero" />
  <circle cx="15.875" cy="23.228" r="1.235" fill="#5d8f3f" transform="translate(-2.797 -17.931)" />
  <circle cx="20.698" cy="25.64" r="1.235" fill="#5d8f3f" transform="translate(-2.797 -17.931)" />
  <circle cx="21.232" cy="30.515" r="1.235" fill="#5d8f3f" transform="rotate(-80.781 9.296 23.192)" />
  <circle cx="15.107" cy="32.548" r="1.765" fill="#5d8f3f" transform="rotate(-80.781 3.17 25.226)" />
</svg>