<svg width="72" height="33" xmlns="http://www.w3.org/2000/svg" xml:space="preserve" fill-rule="evenodd"
    clip-rule="evenodd" stroke-linejoin="round" stroke-miterlimit="2">
    <path
        d="m69.938 8.538-21.36-5.874c-1.993-.546-2.904.795-3.242 1.515l-4.542-2.171-2.024 4.234V0h-5.539v5.539h-5.538v-5.54h-5.541v5.54h-5.536v-5.54h-5.539v5.54H5.54v-5.54H0v8.309h5.539v5.538h5.538V8.308h5.536v5.538h5.539V8.308h5.54v5.538h5.54V8.308h4.55l-1.607 3.356 4.564 2.182-.274.574s-.687 2.04 1.033 3.53c1.72 1.488 14.636 13.113 14.636 13.113s2.49 2.398 4.898.219c2.044-1.856 10.106-16.671 10.84-19.338.736-2.67-1.934-3.406-1.934-3.406ZM59.493 25.35l-7.322-6.225 4.47-8.5 9.243 3.136-6.391 11.589Z"
        fill="#99aab5" fill-rule="nonzero" />
</svg>