<?xml version="1.0" encoding="UTF-8" standalone="no"?>
<!DOCTYPE svg PUBLIC "-//W3C//DTD SVG 1.1//EN" "http://www.w3.org/Graphics/SVG/1.1/DTD/svg11.dtd">
<svg width="72" height="33" viewBox="0 0 72 33" version="1.1" xmlns="http://www.w3.org/2000/svg"
    xmlns:xlink="http://www.w3.org/1999/xlink" xml:space="preserve" xmlns:serif="http://www.serif.com/"
    style="fill-rule:evenodd;clip-rule:evenodd;stroke-linejoin:round;stroke-miterlimit:2;">
    <g transform="matrix(2.76929,0,0,2.76929,-27.6929,-63.6965)">
        <path
            d="M35.255,26.084L27.542,23.963C26.822,23.766 26.493,24.25 26.371,24.51L24.731,23.726L24,25.255L24,23.001L22,23.001L22,25.001L20,25.001L20,23.001L17.999,23.001L17.999,25.001L16,25.001L16,23.001L14,23.001L14,25.001L12,25.001L12,23.001L10,23.001L10,26.001L12,26.001L12,28.001L14,28.001L14,26.001L15.999,26.001L15.999,28.001L17.999,28.001L17.999,26.001L20,26.001L20,28.001L22,28.001L22,26.001L23.643,26.001L23.063,27.213L24.711,28.001L24.612,28.208C24.612,28.208 24.364,28.945 24.985,29.483C25.606,30.02 30.27,34.218 30.27,34.218C30.27,34.218 31.169,35.084 32.039,34.297C32.777,33.627 35.688,28.277 35.953,27.314C36.219,26.35 35.255,26.084 35.255,26.084ZM31.483,32.155L28.839,29.907L30.453,26.838L33.791,27.97L31.483,32.155Z"
            style="fill:rgb(153,170,181);fill-rule:nonzero;" />
    </g>
</svg>