<?xml version="1.0" encoding="UTF-8" standalone="no"?>
<!DOCTYPE svg PUBLIC "-//W3C//DTD SVG 1.1//EN" "http://www.w3.org/Graphics/SVG/1.1/DTD/svg11.dtd">
<svg width="100%" height="100%" viewBox="0 0 25 13" version="1.1" xmlns="http://www.w3.org/2000/svg" xmlns:xlink="http://www.w3.org/1999/xlink" xml:space="preserve" xmlns:serif="http://www.serif.com/" style="fill-rule:evenodd;clip-rule:evenodd;stroke-linejoin:round;stroke-miterlimit:2;">
    <g transform="matrix(1,0,0,1,-9.5,0)">
        <path d="M31.178,12C31.178,12 28.556,13 22,13C15.444,13 12.822,12 12.822,12L12.822,6L31.177,6L31.177,12L31.178,12Z" style="fill:rgb(204,214,221);fill-rule:nonzero;"/>
    </g>
    <g transform="matrix(1,0,0,1,-9.5,0)">
        <path d="M16,11.25C16,11.526 15.776,11.75 15.5,11.75C15.224,11.75 15,11.526 15,11.25L15,8.25C15,7.974 15.224,7.75 15.5,7.75C15.776,7.75 16,7.974 16,8.25L16,11.25ZM29,11.25C29,11.526 28.776,11.75 28.5,11.75C28.224,11.75 28,11.526 28,11.25L28,8.25C28,7.974 28.224,7.75 28.5,7.75C28.776,7.75 29,7.974 29,8.25L29,11.25ZM19,11.65C19,11.926 18.776,12.15 18.5,12.15C18.224,12.15 18,11.926 18,11.65L18,8.65C18,8.374 18.224,8.15 18.5,8.15C18.776,8.15 19,8.374 19,8.65L19,11.65ZM22.5,11.75C22.5,12.026 22.276,12.25 22,12.25C21.724,12.25 21.5,12.026 21.5,11.75L21.5,8.75C21.5,8.474 21.724,8.25 22,8.25C22.276,8.25 22.5,8.474 22.5,8.75L22.5,11.75ZM26,11.65C26,11.926 25.776,12.15 25.5,12.15C25.224,12.15 25,11.926 25,11.65L25,8.65C25,8.374 25.224,8.15 25.5,8.15C25.776,8.15 26,8.374 26,8.65L26,11.65Z" style="fill:rgb(153,170,181);fill-rule:nonzero;"/>
    </g>
    <g transform="matrix(1,0,0,1,-9.5,0)">
        <path d="M28.25,0C27.093,0 26.013,0.32 25.083,0.869C24.153,0.32 23.073,0 21.916,0C20.794,0 19.743,0.3 18.833,0.818C17.923,0.3 16.872,0 15.75,0C12.298,0 9.5,2.798 9.5,6.25C9.5,9.702 20.794,9.5 21.916,9.5C23.073,9.5 34.5,9.702 34.5,6.25C34.5,2.798 31.701,0 28.25,0Z" style="fill:rgb(225,232,237);fill-rule:nonzero;"/>
    </g>
    <g transform="matrix(1,0,0,1,-9.5,0)">
        <path d="M14.894,4.489C14.93,4.497 14.965,4.5 15,4.5C15.231,4.5 15.438,4.34 15.488,4.106C15.519,3.961 15.822,2.665 16.807,1.894C17.567,1.299 18.556,0.907 18.814,0.81C18.418,0.585 17.99,0.41 17.546,0.275C17.123,0.485 16.632,0.761 16.191,1.107C14.955,2.074 14.574,3.599 14.51,3.895C14.453,4.165 14.625,4.431 14.894,4.489ZM27.051,1.903C28.037,2.675 28.34,3.969 28.37,4.114C28.421,4.349 28.628,4.509 28.859,4.509C28.893,4.509 28.928,4.506 28.964,4.498C29.234,4.44 29.405,4.174 29.348,3.904C29.284,3.608 28.905,2.084 27.667,1.115C27.241,0.782 26.771,0.513 26.358,0.306C25.924,0.445 25.507,0.623 25.121,0.848C25.458,0.98 26.348,1.352 27.051,1.903Z" style="fill:rgb(204,214,221);fill-rule:nonzero;"/>
    </g>
</svg>
