<svg viewBox="0 0 72 72" width="72" height="72" xmlns="http://www.w3.org/2000/svg" xml:space="preserve"
    fill-rule="evenodd" clip-rule="evenodd" stroke-linejoin="round" stroke-miterlimit="2">
    <path d="M28.348 34.15 13.5 15.188 6.056 34.15h22.292Z" fill="#f4900c" fill-rule="nonzero" />
    <path d="M35.876 11.068 22.75 35.846H49L35.876 11.068Z" fill="#f4900c" fill-rule="nonzero" />
    <path d="M43.652 34.15 58.5 15.188l7.444 18.962H43.652Z" fill="#f4900c" fill-rule="nonzero" />
    <path
        d="M57.338 30.38 47.774 7.046l-11.76 23.336-.014.006-.014-.008-11.76-23.336-9.564 23.336C8.394 21.666 2.56 16.084 2.56 16.084S6 41.5 6 66h60c0-24.5 3.44-49.916 3.44-49.916s-5.834 5.582-12.102 14.296Z"
        fill="#ffcc4d" fill-rule="nonzero" />
    <circle cx="17.957" cy="22" r="3.688" fill="#5c913b" transform="scale(2)" />
    <circle cx="26.463" cy="22" r="2.412" fill="#981ceb" transform="scale(2)" />
    <circle cx="32.852" cy="22" r="1.986" fill="#dd2e44" transform="scale(2)" />
    <circle cx="9.45" cy="22" r="2.412" fill="#981ceb" transform="scale(2)" />
    <circle cx="3.061" cy="22" r="1.986" fill="#dd2e44" transform="scale(2)" />
    <path
        d="M66 68H6a2 2 0 1 1 0-4h60c1.106 0 2 .894 2 2 0 1.106-.894 2-2 2Zm0-6.972H6a2 2 0 1 1 0-4h60c1.106 0 2 .894 2 2 0 1.106-.894 2-2 2Z"
        fill="#ffac33" fill-rule="nonzero" />
    <circle cx="1.447" cy="8.042" r="1.407" fill="#ffcc4d" transform="scale(2)" />
    <circle cx="6.75" cy="7.594" r="1.192" fill="#f4900c" transform="scale(2)" />
    <circle cx="12.113" cy="3.523" r="1.784" fill="#ffcc4d" transform="scale(2)" />
    <circle cx="34.553" cy="8.042" r="1.407" fill="#ffcc4d" transform="scale(2)" />
    <circle cx="29.25" cy="7.594" r="1.192" fill="#f4900c" transform="scale(2)" />
    <circle cx="23.887" cy="3.523" r="1.784" fill="#ffcc4d" transform="scale(2)" />
    <circle cx="17.938" cy="5.534" r="1.784" fill="#f4900c" transform="scale(2)" />
</svg>