<?xml version="1.0" encoding="UTF-8" standalone="no"?>
<!DOCTYPE svg PUBLIC "-//W3C//DTD SVG 1.1//EN" "http://www.w3.org/Graphics/SVG/1.1/DTD/svg11.dtd">
<svg width="72" height="43" viewBox="0 0 72 43" version="1.1" xmlns="http://www.w3.org/2000/svg"
    xmlns:xlink="http://www.w3.org/1999/xlink" xml:space="preserve" xmlns:serif="http://www.serif.com/"
    style="fill-rule:evenodd;clip-rule:evenodd;stroke-linejoin:round;stroke-miterlimit:2;">
    <g transform="matrix(0.353096,0,0,0.353096,-7.35366,-0.000787793)">
        <g transform="matrix(6.94444,0,0,6.94444,0,0)">
            <path
                d="M7.858,8.395C7.858,8.395 9.217,-0.506 13.79,0.023C17.302,0.429 18.68,0.848 21.623,0.12C23.57,-0.362 25.688,1.256 26.965,4.499C27.781,6.567 28.189,8.54 28.189,8.54C28.189,8.54 32.127,8.155 32.354,10.272C32.582,12.389 28,14.988 16.465,14.988C10,14.987 3.33,12.63 3.013,10.657C2.696,8.684 7.858,8.395 7.858,8.395Z"
                style="fill:rgb(102,117,127);fill-rule:nonzero;" />
        </g>
        <g transform="matrix(6.94444,0,0,6.94444,0,0)">
            <clipPath id="_clip1">
                <rect x="7.694" y="6.671" width="20.55" height="7.009" />
            </clipPath>
            <g clip-path="url(#_clip1)">
                <path
                    d="M8.125,7.15C8.125,7.15 7.855,8.254 7.719,9.021C7.583,9.789 7.945,10.317 10.424,10.845C13.711,11.545 21.103,11.537 25.482,10.462C27.241,10.03 28.368,9.742 28.233,8.879C28.066,7.811 28.037,7.813 27.692,6.671C27.692,6.671 26.215,7.173 24.265,7.631C21.605,8.255 14.301,8.542 10.784,7.775C8.91,7.365 8.125,7.15 8.125,7.15ZM7.989,21.103C7.635,21.248 10.91,22.481 15.469,22.561C20.24,22.645 21.703,22.951 20.615,24.02C19.469,25.145 19.763,26.914 19.844,27.438C19.925,27.962 21.891,29.354 22.052,29.998C22.213,30.643 20.823,35.959 20.823,35.959L12.094,35.707C9.529,26.863 9.211,27.206 7.989,22.103C7.748,21.095 7.989,21.103 7.989,21.103Z"
                    style="fill:rgb(41,47,51);fill-rule:nonzero;" />
            </g>
        </g>
    </g>
</svg>