<?xml version="1.0" encoding="UTF-8" standalone="no"?>
<!DOCTYPE svg PUBLIC "-//W3C//DTD SVG 1.1//EN" "http://www.w3.org/Graphics/SVG/1.1/DTD/svg11.dtd">
<svg width="72" height="39" viewBox="0 0 72 39" version="1.1" xmlns="http://www.w3.org/2000/svg"
    xmlns:xlink="http://www.w3.org/1999/xlink" xml:space="preserve" xmlns:serif="http://www.serif.com/"
    style="fill-rule:evenodd;clip-rule:evenodd;stroke-linejoin:round;stroke-miterlimit:2;">
    <g transform="matrix(2.31281,0,0,2.31281,-5.68488,-0.339983)">
        <path
            d="M30.126,13.751C29.185,13.507 29.117,14.137 27.924,13.997C26.756,13.86 28.353,13.258 27.729,12.905C27.519,12.786 27.218,12.761 26.847,12.807C25.795,12.936 9.893,13.351 9.3,13.637C8.773,13.891 8.461,14.185 7.982,13.738C7.379,13.176 6.516,13.5 6.266,13.687C5.944,13.929 5.877,14.409 6.5,14.964C7.121,15.384 8.173,15.823 9.965,16.123C10.162,16.156 10.33,16.169 10.487,16.175C11.714,16.216 11.884,14.505 13.617,14.459C14.753,14.429 24.77,15.529 25.595,15.417C25.696,15.403 25.802,15.393 25.924,15.393C27.487,15.393 27.85,16.843 29.513,15.709C30.218,15.136 31.324,14.061 30.126,13.751Z"
            style="fill:rgb(241,144,32);fill-rule:nonzero;" />
    </g>
    <g transform="matrix(2.31281,0,0,2.31281,-5.68488,-0.339983)">
        <path
            d="M5.938,9.115C7.461,10.642 8.542,12.26 9.3,13.638C9.866,14.667 10.256,15.567 10.487,16.176C11.714,16.217 11.884,15.506 13.617,15.46C14.753,15.43 15.4,16.229 16.24,16.689C17.742,17.511 18.809,15.959 19.959,15.959C20.809,15.959 22.178,17.166 23.135,16.723C24.522,16.08 24.77,15.532 25.595,15.419C25.917,14.628 26.336,13.723 26.847,12.81C27.587,11.486 28.525,10.145 29.688,9.117L5.938,9.117L5.938,9.115Z"
            style="fill:rgb(243,108,36);fill-rule:nonzero;" />
    </g>
    <g transform="matrix(2.31281,0,0,2.31281,-5.68488,-0.339983)">
        <path
            d="M29.306,9.435C30.587,8.172 6.267,9.451 6.965,10.223C7.953,11.317 9.165,13.376 9.165,13.376C9.165,13.376 13.922,15.781 17.516,12.75C20.016,14.25 23.516,13.719 25.078,11.141C25.078,11.141 26.295,11.594 27.529,11.672C27.529,11.672 28.482,10.247 29.306,9.435Z"
            style="fill:rgb(206,92,31);fill-rule:nonzero;" />
    </g>
    <g transform="matrix(2.31281,0,0,2.31281,-5.68488,-0.339983)">
        <path
            d="M31.125,3.725C30.885,3.725 30.658,3.77 30.439,3.834C29.751,2.989 28.716,2.438 27.541,2.438C27.454,2.438 27.372,2.458 27.286,2.464C26.552,1.637 25.492,1.105 24.299,1.105C22.794,1.105 21.499,1.944 20.813,3.171C20.467,2.373 19.674,1.814 18.749,1.814C18.031,1.814 17.4,2.156 16.988,2.679C16.48,1.209 15.1,0.147 13.458,0.147C12.135,0.147 10.978,0.836 10.31,1.87C10.126,1.841 9.942,1.812 9.75,1.812C8.318,1.812 7.089,2.624 6.457,3.804C6.254,3.766 6.047,3.741 5.833,3.741C3.969,3.741 2.458,5.252 2.458,7.116C2.458,8.98 3.969,10.491 5.833,10.491C6.421,10.491 6.968,10.332 7.447,10.066C7.823,10.348 8.285,10.522 8.792,10.522C8.937,10.522 9.077,10.506 9.214,10.479C10.069,11.858 11.581,12.782 13.323,12.782C15.032,12.782 16.529,11.897 17.396,10.565C18.116,11.447 19.198,12.022 20.425,12.022C22.24,12.022 23.752,10.784 24.201,9.111C24.235,9.112 24.266,9.121 24.3,9.121C24.583,9.121 24.859,9.09 25.126,9.034C25.78,9.59 26.617,9.938 27.543,9.938C28.717,9.938 29.753,9.387 30.44,8.542C30.659,8.606 30.886,8.651 31.126,8.651C32.486,8.651 33.589,7.548 33.589,6.188C33.589,4.828 32.485,3.725 31.125,3.725Z"
            style="fill:rgb(204,214,221);fill-rule:nonzero;" />
    </g>
    <g transform="matrix(2.31281,0,0,2.31281,-5.68488,-0.339983)">
        <circle cx="27.795" cy="5.767" r="2.121" style="fill:rgb(225,232,237);" />
    </g>
    <g transform="matrix(2.31281,0,0,2.31281,-5.68488,-0.339983)">
        <path
            d="M19.876,5.903C19.876,4.71 18.909,3.742 17.716,3.742C17.348,3.742 17.006,3.843 16.703,4.005C16.452,3.404 15.859,2.981 15.166,2.981C14.599,2.981 14.099,3.266 13.798,3.699C13.128,3.076 12.237,2.686 11.25,2.686C9.495,2.686 8.034,3.896 7.625,5.524C7.26,5.157 6.755,4.929 6.196,4.929C5.085,4.929 4.184,5.83 4.184,6.941C4.184,8.052 5.085,8.953 6.196,8.953C6.899,8.953 7.515,8.592 7.875,8.046C8.392,9.127 9.404,9.919 10.624,10.125C11.014,10.795 11.731,11.25 12.562,11.25C13.636,11.25 14.531,10.496 14.755,9.49C15.079,9.67 15.446,9.782 15.842,9.782C16.912,9.782 17.804,9.033 18.032,8.032C19.074,7.877 19.876,6.988 19.876,5.903Z"
            style="fill:rgb(225,232,237);fill-rule:nonzero;" />
    </g>
</svg>