<?xml version="1.0" encoding="UTF-8" standalone="no"?>
<!DOCTYPE svg PUBLIC "-//W3C//DTD SVG 1.1//EN" "http://www.w3.org/Graphics/SVG/1.1/DTD/svg11.dtd">
<svg width="72" height="44" viewBox="0 0 72 44" version="1.1" xmlns="http://www.w3.org/2000/svg"
    xmlns:xlink="http://www.w3.org/1999/xlink" xml:space="preserve" xmlns:serif="http://www.serif.com/"
    style="fill-rule:evenodd;clip-rule:evenodd;stroke-linejoin:round;stroke-miterlimit:2;">
    <g transform="matrix(2.4827,0,0,2.4827,-8.68844,-1.24073)">
        <path
            d="M32.104,3.511L18.104,0.511C18.036,0.496 17.964,0.496 17.895,0.511L3.895,3.511C3.671,3.559 3.508,3.754 3.5,3.983C3.493,4.212 3.642,4.417 3.863,4.481L8.807,5.894C8.615,6.489 8.5,7.176 8.5,8C8.5,10.29 11.785,11.5 18,11.5C24.215,11.5 27.5,10.29 27.5,8C27.5,7.176 27.385,6.489 27.193,5.894L32.138,4.481C32.359,4.418 32.508,4.212 32.5,3.983C32.492,3.754 32.329,3.559 32.104,3.511Z"
            style="fill:rgb(41,47,51);fill-rule:nonzero;" />
    </g>
    <g transform="matrix(2.4827,0,0,2.4827,-8.68844,-1.24073)">
        <path
            d="M32.48,3.863C32.404,3.598 32.13,3.446 31.862,3.519L18,7.48L4.137,3.519C3.875,3.446 3.595,3.597 3.519,3.863C3.443,4.128 3.597,4.405 3.863,4.481L17.863,8.481C17.908,8.494 17.954,8.5 17.999,8.5C18.044,8.5 18.091,8.494 18.136,8.481L32.136,4.481C32.403,4.405 32.557,4.128 32.48,3.863Z"
            style="fill:rgb(102,117,127);fill-rule:nonzero;" />
    </g>
    <g transform="matrix(2.4827,0,0,2.4827,-8.68844,-1.24073)">
        <path
            d="M17.958,3.502L5.958,4.502C5.932,4.504 5.5,4.559 5.5,5L5.5,11.095C5.201,11.281 5,11.835 5,13.5C5,15.985 5.448,18 6,18C6.552,18 7,15.985 7,13.5C7,11.835 6.799,11.281 6.5,11.095L6.5,5.46L18.042,4.498C18.316,4.475 18.521,4.234 18.498,3.958C18.475,3.683 18.23,3.476 17.958,3.502Z"
            style="fill:rgb(255,204,77);fill-rule:nonzero;" />
    </g>
</svg>