<svg width="128" height="128" viewBox="0 0 36 36" xmlns="http://www.w3.org/2000/svg" xml:space="preserve"
    fill-rule="evenodd" clip-rule="evenodd" stroke-linejoin="round" stroke-miterlimit="2">
    <path
        d="M32.664 8.519C29.364 5.134 23.42 4.75 18 4.75S6.636 5.134 3.336 8.519C.582 11.344 0 15.751 0 19.791c0 5.263 1.982 11.311 6.357 14.244C9.364 36.051 13.95 35.871 18 35.871c4.05 0 8.636.18 11.643-1.836C34.018 31.101 36 25.054 36 19.791c0-4.04-.582-8.447-3.336-11.272Z"
        fill="#f4900c" fill-rule="nonzero" />
    <path
        d="M20.783 5.444a.637.637 0 0 1-.647.764h-4.451a.636.636 0 0 1-.647-.764l.745-4.472a.948.948 0 0 1 .902-.764h2.451c.426 0 .832.344.901.764l.746 4.472Z"
        fill="#3f7123" fill-rule="nonzero" />
</svg>