<?xml version="1.0" encoding="UTF-8" standalone="no"?>
<!DOCTYPE svg PUBLIC "-//W3C//DTD SVG 1.1//EN" "http://www.w3.org/Graphics/SVG/1.1/DTD/svg11.dtd">
<svg width="100%" height="100%" viewBox="0 0 24 9" version="1.1" xmlns="http://www.w3.org/2000/svg" xmlns:xlink="http://www.w3.org/1999/xlink" xml:space="preserve" xmlns:serif="http://www.serif.com/" style="fill-rule:evenodd;clip-rule:evenodd;stroke-linejoin:round;stroke-miterlimit:2;">
    <g transform="matrix(1,0,0,1,-6.001,-12)">
        <path d="M15.707,15.293C12.452,12.038 7.221,12 7,12C6.448,12 6.001,12.447 6.001,12.998C6,13.55 6.447,13.998 6.999,14C7.028,14 8.924,14.023 10.982,14.737C10.389,15.377 10,16.371 10,17.5C10,19.434 11.119,21 12.5,21C13.881,21 15,19.434 15,17.5C15,17.326 14.981,17.16 14.963,16.993C14.976,16.993 14.988,17 15,17C15.256,17 15.512,16.902 15.707,16.707C16.098,16.316 16.098,15.684 15.707,15.293ZM29,12C28.779,12 23.549,12.038 20.293,15.293C19.902,15.684 19.902,16.316 20.293,16.707C20.488,16.902 20.744,17 21,17C21.013,17 21.024,16.993 21.036,16.993C21.02,17.16 21,17.326 21,17.5C21,19.434 22.119,21 23.5,21C24.881,21 26,19.434 26,17.5C26,16.371 25.611,15.377 25.018,14.737C27.076,14.023 28.972,14 29.002,14C29.553,13.998 30,13.55 29.999,12.998C29.998,12.447 29.552,12 29,12Z" style="fill:rgb(41,47,51);fill-rule:nonzero;"/>
    </g>
</svg>
