<svg viewBox="0 0 24 9" xmlns="http://www.w3.org/2000/svg" fill-rule="evenodd" clip-rule="evenodd" stroke-linejoin="round" stroke-miterlimit="2"><path d="M9.706 3.293C6.451.038 1.22 0 .999 0a1.001 1.001 0 00-.001 2c.029 0 1.925.023 3.983.737-.593.64-.982 1.634-.982 2.763 0 1.934 1.119 3.5 2.5 3.5s2.5-1.566 2.5-3.5c0-.174-.019-.34-.037-.507.013 0 .025.007.037.007a.999.999 0 00.707-1.707zM22.999 0c-.221 0-5.451.038-8.707 3.293A.999.999 0 0014.999 5c.013 0 .024-.007.036-.007-.016.167-.036.333-.036.507 0 1.934 1.119 3.5 2.5 3.5s2.5-1.566 2.5-3.5c0-1.129-.389-2.123-.982-2.763A13.969 13.969 0 0123.001 2a1 1 0 00-.002-2z" fill="#292f33" fill-rule="nonzero"/></svg>