<?xml version="1.0" encoding="UTF-8" standalone="no"?>
<!DOCTYPE svg PUBLIC "-//W3C//DTD SVG 1.1//EN" "http://www.w3.org/Graphics/SVG/1.1/DTD/svg11.dtd">
<svg width="72" height="72" viewBox="0 0 72 72" version="1.1" xmlns="http://www.w3.org/2000/svg"
    xmlns:xlink="http://www.w3.org/1999/xlink" xml:space="preserve" xmlns:serif="http://www.serif.com/"
    style="fill-rule:evenodd;clip-rule:evenodd;stroke-linejoin:round;stroke-miterlimit:2;">
    <g transform="matrix(2,0,0,2,0,0)">
        <path
            d="M28.81,23.209C28.81,15.537 14.666,16.038 14.666,11.406C14.666,9.164 16.811,8.069 19.299,8.069C23.483,8.069 24.228,10.757 26.123,10.757C27.465,10.757 28.111,9.912 28.111,8.965C28.111,6.764 24.774,5.098 21.574,4.521L21.574,2.397C21.574,1.072 20.502,-0.003 19.176,-0.003C17.849,-0.003 16.776,1.072 16.776,2.397L16.776,4.596C13.287,5.39 10.286,7.81 10.286,11.755C10.286,19.124 24.428,18.826 24.428,24.002C24.428,25.795 22.487,27.588 19.299,27.588C14.518,27.588 12.925,24.352 10.983,24.352C10.037,24.352 9.191,25.148 9.191,26.348C9.191,28.254 12.386,30.548 16.779,31.189L16.776,31.204L16.776,33.601C16.776,34.927 17.851,36.002 19.177,36.002C20.502,36.002 21.576,34.927 21.576,33.601L21.576,31.204C21.576,31.176 21.562,31.154 21.56,31.129C25.513,30.391 28.81,27.814 28.81,23.209Z"
            style="fill:rgb(41,47,51);fill-rule:nonzero;" />
    </g>
</svg>