<?xml version="1.0" encoding="UTF-8" standalone="no"?>
<!DOCTYPE svg PUBLIC "-//W3C//DTD SVG 1.1//EN" "http://www.w3.org/Graphics/SVG/1.1/DTD/svg11.dtd">
<svg width="100%" height="100%" viewBox="0 0 26 12" version="1.1" xmlns="http://www.w3.org/2000/svg" xmlns:xlink="http://www.w3.org/1999/xlink" xml:space="preserve" xmlns:serif="http://www.serif.com/" style="fill-rule:evenodd;clip-rule:evenodd;stroke-linejoin:round;stroke-miterlimit:2;">
    <g transform="matrix(1,0,0,1,-5.05242,-3.896)">
        <path d="M14.222,13.222C14.222,14.613 13.376,15.741 12.333,15.741C11.29,15.741 10.444,14.614 10.444,13.222C10.444,11.831 11.289,10.703 12.333,10.703C13.376,10.704 14.222,11.831 14.222,13.222ZM29.886,10.271C30.108,10.271 30.331,10.202 30.523,10.058C30.993,9.706 31.087,9.04 30.735,8.571C27.269,3.949 22.643,3.896 22.448,3.896C21.861,3.896 21.386,4.372 21.386,4.959C21.386,5.544 21.859,6.019 22.444,6.021C22.61,6.023 26.236,6.112 29.036,9.846C29.244,10.124 29.563,10.271 29.886,10.271ZM21.778,13.222C21.778,14.613 22.624,15.741 23.667,15.741C24.71,15.741 25.556,14.614 25.556,13.222C25.556,11.831 24.711,10.703 23.667,10.703C22.623,10.704 21.778,11.831 21.778,13.222ZM6.114,10.271C5.892,10.271 5.669,10.202 5.477,10.058C5.008,9.706 4.913,9.04 5.265,8.571C8.731,3.949 13.357,3.896 13.552,3.896C14.139,3.896 14.614,4.372 14.614,4.959C14.614,5.544 14.141,6.019 13.556,6.021C13.39,6.023 9.764,6.112 6.964,9.846C6.756,10.124 6.437,10.271 6.114,10.271Z" style="fill:rgb(45,45,45);fill-rule:nonzero;"/>
    </g>
</svg>
