<svg viewBox="0 0 26 12" width="52" height="24" xmlns="http://www.w3.org/2000/svg" fill-rule="evenodd"
  clip-rule="evenodd" stroke-linejoin="round" stroke-miterlimit="2">
  <path
    d="M9.17 9.326c0 1.391-.846 2.519-1.89 2.519-1.042 0-1.888-1.127-1.888-2.519 0-1.391.845-2.519 1.889-2.519 1.043.001 1.889 1.128 1.889 2.519zm15.664-2.951a1.061 1.061 0 00.849-1.7C22.217.053 17.59 0 17.396 0a1.062 1.062 0 00-.004 2.125c.166.002 3.792.091 6.592 3.825.208.278.527.425.85.425zm-8.108 2.951c0 1.391.846 2.519 1.889 2.519 1.043 0 1.889-1.127 1.889-2.519 0-1.391-.845-2.519-1.89-2.519-1.043.001-1.888 1.128-1.888 2.519zM1.062 6.375a1.062 1.062 0 01-.849-1.7C3.679.053 8.305 0 8.5 0a1.062 1.062 0 01.004 2.125c-.166.002-3.792.091-6.592 3.825a1.06 1.06 0 01-.85.425z"
    fill="#2d2d2d" fill-rule="nonzero" />
</svg>