<?xml version="1.0" encoding="UTF-8" standalone="no"?>
<!DOCTYPE svg PUBLIC "-//W3C//DTD SVG 1.1//EN" "http://www.w3.org/Graphics/SVG/1.1/DTD/svg11.dtd">
<svg width="100%" height="100%" viewBox="0 0 22 4" version="1.1" xmlns="http://www.w3.org/2000/svg" xmlns:xlink="http://www.w3.org/1999/xlink" xml:space="preserve" xmlns:serif="http://www.serif.com/" style="fill-rule:evenodd;clip-rule:evenodd;stroke-linejoin:round;stroke-miterlimit:2;">
    <g transform="matrix(1,0,0,1,-7.50018,-11)">
        <path d="M28.457,14.297C28.397,14.162 26.958,11 24,11C21.043,11 19.603,14.162 19.543,14.297C19.451,14.504 19.511,14.746 19.688,14.888C19.863,15.03 20.114,15.035 20.298,14.902C20.31,14.893 21.56,14 24,14C26.426,14 27.674,14.881 27.702,14.901C27.79,14.967 27.896,15 28,15C28.11,15 28.221,14.963 28.312,14.891C28.489,14.749 28.55,14.505 28.457,14.297ZM16.457,14.297C16.397,14.162 14.958,11 12,11C9.043,11 7.603,14.162 7.543,14.297C7.451,14.504 7.511,14.746 7.687,14.888C7.863,15.03 8.114,15.035 8.297,14.902C8.31,14.893 9.559,14 12,14C14.426,14 15.674,14.881 15.702,14.901C15.79,14.967 15.896,15 16,15C16.11,15 16.221,14.963 16.312,14.891C16.49,14.749 16.549,14.505 16.457,14.297Z" style="fill:rgb(45,45,45);fill-rule:nonzero;"/>
    </g>
</svg>
