<?xml version="1.0" encoding="UTF-8" standalone="no"?>
<!DOCTYPE svg PUBLIC "-//W3C//DTD SVG 1.1//EN" "http://www.w3.org/Graphics/SVG/1.1/DTD/svg11.dtd">
<svg width="100%" height="100%" viewBox="0 0 18 30" version="1.1" xmlns="http://www.w3.org/2000/svg" xmlns:xlink="http://www.w3.org/1999/xlink" xml:space="preserve" xmlns:serif="http://www.serif.com/" style="fill-rule:evenodd;clip-rule:evenodd;stroke-linejoin:round;stroke-miterlimit:2;">
    <g transform="matrix(1,0,0,1,-16.941,-6.353)">
        <circle cx="24.882" cy="14.294" r="6.882" style="fill:rgb(244,247,249);"/>
    </g>
    <g transform="matrix(1,0,0,1,-16.941,-6.353)">
        <path d="M32.824,36C32.239,36 31.765,35.526 31.765,34.941L31.765,14.824C31.765,14.239 32.239,13.765 32.824,13.765C33.409,13.765 33.883,14.239 33.883,14.824L33.883,34.942C33.882,35.526 33.409,36 32.824,36Z" style="fill:rgb(41,47,51);fill-rule:nonzero;"/>
    </g>
    <g transform="matrix(1,0,0,1,-16.941,-6.353)">
        <path d="M32.824,12.706C32.77,12.706 32.719,12.718 32.666,12.722C31.934,9.094 28.723,6.353 24.882,6.353C20.503,6.353 16.941,9.915 16.941,14.294C16.941,18.673 20.503,22.235 24.882,22.235C28.35,22.235 31.298,19.997 32.378,16.892C32.522,16.923 32.67,16.941 32.823,16.941C33.993,16.941 34.941,15.993 34.941,14.823C34.941,13.654 33.993,12.706 32.824,12.706ZM24.882,20.118C21.671,20.118 19.059,17.506 19.059,14.294C19.059,11.082 21.672,8.47 24.882,8.47C28.093,8.47 30.706,11.082 30.706,14.294C30.706,17.506 28.093,20.118 24.882,20.118Z" style="fill:rgb(103,117,127);fill-rule:nonzero;"/>
    </g>
    <g transform="matrix(1,0,0,1,-16.941,-6.353)">
        <path d="M28.049,9.411C27.137,8.818 26.051,8.471 24.882,8.471C21.666,8.471 19.058,11.078 19.058,14.295C19.058,15.464 19.406,16.55 19.998,17.462L28.049,9.411ZM22.397,19.555C23.152,19.912 23.992,20.118 24.882,20.118C28.098,20.118 30.706,17.511 30.706,14.294C30.706,13.404 30.5,12.563 30.143,11.809L22.397,19.555Z" style="fill:rgb(189,221,244);fill-rule:nonzero;"/>
    </g>
</svg>
