<svg viewBox="0 0 18 30" xmlns="http://www.w3.org/2000/svg" fill-rule="evenodd" clip-rule="evenodd" stroke-linejoin="round" stroke-miterlimit="2"><circle cx="24.882" cy="14.294" r="6.882" fill="#f4f7f9" transform="translate(-16.941 -6.353)"/><path d="M15.883 29.647a1.059 1.059 0 01-1.059-1.059V8.471a1.059 1.059 0 112.118 0v20.118a1.06 1.06 0 01-1.059 1.058z" fill="#292f33" fill-rule="nonzero"/><path d="M15.883 6.353c-.054 0-.105.012-.158.016C14.993 2.741 11.782 0 7.941 0 3.562 0 0 3.562 0 7.941s3.562 7.941 7.941 7.941c3.468 0 6.416-2.238 7.496-5.343a2.118 2.118 0 10.446-4.186zm-7.942 7.412a5.83 5.83 0 01-5.823-5.824 5.83 5.83 0 015.823-5.824 5.83 5.83 0 015.824 5.824 5.83 5.83 0 01-5.824 5.824z" fill="#67757f" fill-rule="nonzero"/><path d="M11.108 3.058a5.788 5.788 0 00-3.167-.94 5.824 5.824 0 00-5.824 5.824c0 1.169.348 2.255.94 3.167l8.051-8.051zM5.456 13.202a5.794 5.794 0 002.485.563 5.824 5.824 0 005.824-5.824c0-.89-.206-1.731-.563-2.485l-7.746 7.746z" fill="#bdddf4" fill-rule="nonzero"/></svg>