<?xml version="1.0" encoding="UTF-8" standalone="no"?>
<!DOCTYPE svg PUBLIC "-//W3C//DTD SVG 1.1//EN" "http://www.w3.org/Graphics/SVG/1.1/DTD/svg11.dtd">
<svg width="100%" height="100%" viewBox="0 0 16 6" version="1.1" xmlns="http://www.w3.org/2000/svg" xmlns:xlink="http://www.w3.org/1999/xlink" xml:space="preserve" xmlns:serif="http://www.serif.com/" style="fill-rule:evenodd;clip-rule:evenodd;stroke-linejoin:round;stroke-miterlimit:2;">
    <g transform="matrix(1,0,0,1,-10,-17.938)">
        <path d="M14,20.606C14,22.079 13.104,23.273 12,23.273C10.895,23.273 10,22.079 10,20.606C10,19.133 10.895,17.939 12,17.939C13.104,17.939 14,19.133 14,20.606ZM26,20.605C26,22.078 25.105,23.272 24,23.272C22.895,23.272 22,22.078 22,20.605C22,19.133 22.896,17.938 24,17.938C25.105,17.939 26,19.133 26,20.605Z" style="fill:rgb(45,45,45);fill-rule:nonzero;"/>
    </g>
</svg>
