<?xml version="1.0" encoding="UTF-8" standalone="no"?>
<!DOCTYPE svg PUBLIC "-//W3C//DTD SVG 1.1//EN" "http://www.w3.org/Graphics/SVG/1.1/DTD/svg11.dtd">
<svg width="72" height="77" viewBox="0 0 72 77" version="1.1" xmlns="http://www.w3.org/2000/svg"
    xmlns:xlink="http://www.w3.org/1999/xlink" xml:space="preserve" xmlns:serif="http://www.serif.com/"
    style="fill-rule:evenodd;clip-rule:evenodd;stroke-linejoin:round;stroke-miterlimit:2;">
    <g transform="matrix(5.75443,0,0,5.75443,-23.6807,-42.6781)">
        <path
            d="M12.159,16.783C9.15,16.783 6.568,14.813 5.665,12.068C4.504,13.522 3.968,15.031 4.15,16.445C4.335,17.868 5.229,19.066 6.606,19.73C7.909,20.359 9.744,20.748 11.479,20.639C12.492,20.575 13.472,20.342 14.292,19.887C15.523,19.206 16.255,18.112 16.408,16.724C16.468,16.182 16.508,15.682 16.544,15.188C15.441,16.111 14.074,16.675 12.594,16.768C12.448,16.779 12.303,16.783 12.159,16.783Z"
            style="fill:white;fill-rule:nonzero;" />
    </g>
    <g transform="matrix(5.75443,0,0,5.75443,-23.6807,-42.6781)">
        <path
            d="M12.159,15.283C12.272,15.283 12.386,15.279 12.5,15.272C14.215,15.164 15.691,14.259 16.588,12.94L16.627,12.872C16.596,9.884 15.947,8.133 14.65,7.583C13.716,7.186 10.963,7.273 7.249,10.442C7.127,10.546 7.022,10.653 6.906,10.758C7.31,13.346 9.525,15.283 12.159,15.283Z"
            style="fill:rgb(101,71,27);fill-rule:nonzero;" />
    </g>
    <g transform="matrix(5.75443,0,0,5.75443,-23.6807,-42.6781)">
        <path
            d="M16.626,12.872L16.587,12.94C15.69,14.259 14.214,15.164 12.499,15.272C12.385,15.279 12.271,15.283 12.158,15.283C9.524,15.283 7.309,13.346 6.905,10.759C6.435,11.188 6.018,11.625 5.664,12.068C6.567,14.813 9.149,16.783 12.158,16.783C12.302,16.783 12.447,16.778 12.593,16.769C14.073,16.676 15.44,16.112 16.543,15.189C16.605,14.348 16.634,13.575 16.626,12.872Z"
            style="fill:rgb(244,144,12);fill-rule:nonzero;" />
    </g>
    <g transform="matrix(5.75443,0,0,5.75443,-23.6807,-42.6781)">
        <path
            d="M9.781,11.81C10.391,11.772 10.855,11.246 10.816,10.636C10.778,10.026 10.252,9.562 9.642,9.6C9.032,9.638 8.568,10.164 8.606,10.774C8.645,11.384 9.171,11.848 9.781,11.81Z"
            style="fill:white;fill-rule:nonzero;" />
    </g>
</svg>