<svg viewBox="0 0 25 8" width="50" height="16" xmlns="http://www.w3.org/2000/svg" fill-rule="evenodd"
  clip-rule="evenodd" stroke-linejoin="round" stroke-miterlimit="2">
  <path
    d="M.945 7.556a.944.944 0 01-.567-1.7c.135-.101 2.787-2.061 6.475-2.77-2.338-1.172-4.932-1.197-4.965-1.197A.944.944 0 011.89 0c.21 0 5.15.036 8.223 3.11a.945.945 0 01-.667 1.612c-4.357 0-7.898 2.618-7.933 2.644a.944.944 0 01-.568.19zm22.664 0a.943.943 0 01-.564-.187c-.036-.027-3.6-2.645-7.935-2.645a.942.942 0 01-.667-1.612C17.518.037 22.458.002 22.666.002a.944.944 0 01.002 1.889c-.034 0-2.629.025-4.966 1.197 3.688.708 6.34 2.668 6.475 2.77a.944.944 0 01-.568 1.698z"
    fill="#2d2d2d" fill-rule="nonzero" />
</svg>