<?xml version="1.0" encoding="UTF-8" standalone="no"?>
<!DOCTYPE svg PUBLIC "-//W3C//DTD SVG 1.1//EN" "http://www.w3.org/Graphics/SVG/1.1/DTD/svg11.dtd">
<svg width="100%" height="100%" viewBox="0 0 25 8" version="1.1" xmlns="http://www.w3.org/2000/svg" xmlns:xlink="http://www.w3.org/1999/xlink" xml:space="preserve" xmlns:serif="http://www.serif.com/" style="fill-rule:evenodd;clip-rule:evenodd;stroke-linejoin:round;stroke-miterlimit:2;">
    <g transform="matrix(1,0,0,1,-5.72287,-11.332)">
        <path d="M6.668,18.888C6.381,18.888 6.097,18.758 5.912,18.51C5.599,18.093 5.683,17.501 6.101,17.188C6.236,17.087 8.888,15.127 12.576,14.418C10.238,13.246 7.644,13.221 7.611,13.221C7.09,13.22 6.668,12.796 6.669,12.275C6.669,11.754 7.091,11.332 7.613,11.332C7.822,11.332 12.762,11.368 15.836,14.442C16.106,14.712 16.187,15.118 16.041,15.471C15.895,15.824 15.55,16.054 15.169,16.054C10.812,16.054 7.271,18.672 7.236,18.698C7.063,18.827 6.865,18.888 6.668,18.888ZM29.332,18.888C29.136,18.888 28.937,18.827 28.768,18.701C28.732,18.674 25.168,16.056 20.833,16.056C20.451,16.056 20.106,15.826 19.961,15.473C19.814,15.12 19.895,14.714 20.166,14.444C23.241,11.369 28.181,11.334 28.389,11.334C28.91,11.334 29.332,11.756 29.333,12.277C29.334,12.798 28.911,13.221 28.391,13.223C28.357,13.223 25.762,13.248 23.425,14.42C27.113,15.128 29.765,17.088 29.9,17.19C30.317,17.503 30.402,18.093 30.09,18.511C29.904,18.758 29.62,18.888 29.332,18.888Z" style="fill:rgb(45,45,45);fill-rule:nonzero;"/>
    </g>
</svg>
