<?xml version="1.0" standalone="no"?>
<!DOCTYPE svg PUBLIC "-//W3C//DTD SVG 20010904//EN"
 "http://www.w3.org/TR/2001/REC-SVG-20010904/DTD/svg10.dtd">
<svg version="1.0" xmlns="http://www.w3.org/2000/svg"
 width="167.000000pt" height="167.000000pt" viewBox="0 0 167.000000 167.000000"
 preserveAspectRatio="xMidYMid meet">
<metadata>
Created by potrace 1.11, written by Peter Selinger 2001-2013
</metadata>
<g transform="translate(0.000000,167.000000) scale(0.100000,-0.100000)"
fill="#000000" stroke="none">
<path d="M696 1614 c-35 -11 -66 -32 -112 -77 -62 -61 -63 -64 -54 -97 18 -71
19 -98 1 -114 -16 -14 -22 -12 -72 21 -110 75 -182 82 -275 28 -57 -33 -79
-81 -78 -170 0 -80 22 -136 81 -204 25 -30 36 -53 38 -80 l3 -39 -39 5 c-50 7
-50 4 -47 -222 l3 -179 25 -6 c14 -4 32 -4 40 1 13 6 15 -4 16 -64 1 -95 9
-165 24 -202 15 -40 66 -92 114 -117 38 -20 47 -22 121 -36 41 -8 680 -7 725
0 103 18 188 75 223 150 15 32 26 135 27 261 0 14 4 16 18 9 20 -11 57 1 65
21 9 24 6 351 -4 370 -10 18 -58 24 -74 7 -20 -19 -8 71 12 93 109 120 138
266 72 358 -40 56 -163 87 -234 60 -16 -7 -56 -28 -88 -48 -52 -31 -61 -34
-73 -21 -18 17 -19 35 -9 104 7 48 6 52 -30 92 -46 51 -74 70 -137 92 -41 14
-55 15 -96 5 -38 -10 -54 -10 -86 1 -45 16 -38 17 -100 -2z"/>
</g>
</svg>
